<svg width="304" height="83" viewBox="0 0 304 83" fill="none" xmlns="http://www.w3.org/2000/svg">
<path fill-rule="evenodd" clip-rule="evenodd" d="M13.2148 18.3187H0.154258L2.98233 22.3838H27.3037L44.6321 11.9895L61.9604 22.3838H86.2818L89.1099 18.3187H76.0494L44.6321 0L13.2148 18.3187ZM8.32995 29.7936H0L2.98233 34.013H44.6321L86.2818 34.013L89.2642 29.7936H80.9342V25.6255H68.5421L65.6626 29.7936L44.6321 29.7936H23.6015L20.722 25.6255H8.32995V29.7936ZM20.722 37.2033H8.32995V63.0862L18.6138 69.1066V40.9597H23.6015V47.6491H44.6321H65.6626V40.9597H70.6503V69.1066L80.9342 63.0862V37.2033H68.5421L65.6626 40.9597H44.6321H23.6015L20.722 37.2033ZM31.8801 50.8909H25.6583V73.2232L31.8801 76.9795V50.8909ZM36.1479 50.8909H42.3696V83L36.1479 79.2436V50.8909ZM57.3841 50.8909H63.6059V73.2232L57.3841 76.9795V50.8909ZM53.1163 50.8909H46.8945V83L53.1163 79.2436V50.8909Z" fill="#0093DD"/>
<path d="M283.694 29.7121C283.836 29.7121 283.951 29.7652 284.039 29.8714C284.146 29.9776 284.199 30.1015 284.199 30.2431V32.8712C284.199 34.7472 283.827 36.5436 283.084 38.2603C282.34 39.977 281.341 41.4548 280.084 42.6936C278.845 43.9325 277.35 44.9147 275.598 45.6404C273.863 46.366 272.04 46.7288 270.129 46.7288C268.235 46.7288 266.421 46.366 264.687 45.6404C262.952 44.9147 261.457 43.9325 260.2 42.6936C258.944 41.4548 257.944 39.977 257.2 38.2603C256.457 36.5436 256.085 34.7472 256.085 32.8712C256.085 30.9952 256.457 29.2077 257.2 27.5087C257.944 25.792 258.944 24.3142 260.2 23.0754C261.457 21.8365 262.952 20.8543 264.687 20.1286C266.421 19.3853 268.244 19.0137 270.155 19.0137C272.403 19.0137 274.5 19.5092 276.447 20.5003C278.412 21.4737 280.04 22.8099 281.332 24.5089C281.42 24.6151 281.456 24.739 281.438 24.8806C281.42 25.0222 281.358 25.1372 281.252 25.2257L275.89 29.2608C275.783 29.3493 275.659 29.3847 275.518 29.367C275.376 29.3493 275.261 29.2785 275.173 29.1546C274.589 28.3405 273.845 27.7034 272.943 27.2433C272.04 26.7654 271.067 26.5265 270.023 26.5265C268.253 26.5265 266.74 27.1459 265.483 28.3848C264.244 29.6236 263.625 31.1191 263.625 32.8712C263.625 34.6233 264.244 36.1188 265.483 37.3577C266.74 38.5965 268.253 39.216 270.023 39.216C271.173 39.216 272.235 38.9328 273.208 38.3665C274.199 37.7824 274.978 37.0126 275.544 36.0569H269.279C269.138 36.0569 269.014 36.0038 268.908 35.8976C268.801 35.7914 268.748 35.6675 268.748 35.5259V30.2431C268.748 30.1015 268.801 29.9776 268.908 29.8714C269.014 29.7652 269.138 29.7121 269.279 29.7121H283.694Z" fill="white"/>
<path d="M247.852 19.944C247.852 19.7847 247.896 19.6609 247.985 19.5724C248.091 19.4662 248.215 19.4131 248.356 19.4131H254.781C254.922 19.4131 255.046 19.4662 255.152 19.5724C255.259 19.6609 255.312 19.7847 255.312 19.944V45.4292C255.312 45.5708 255.259 45.6947 255.152 45.8008C255.046 45.907 254.922 45.9601 254.781 45.9601H248.144C247.949 45.9601 247.799 45.8716 247.693 45.6947L239.384 30.9876V45.4292C239.384 45.5885 239.33 45.7124 239.224 45.8008C239.118 45.907 238.994 45.9601 238.853 45.9601H232.455C232.295 45.9601 232.163 45.907 232.057 45.8008C231.968 45.7124 231.924 45.5885 231.924 45.4292V19.944C231.924 19.7847 231.968 19.6609 232.057 19.5724C232.163 19.4662 232.295 19.4131 232.455 19.4131H239.092C239.286 19.4131 239.428 19.4927 239.516 19.652L247.852 33.0583V19.944Z" fill="white"/>
<path d="M221.214 19.4131C221.444 19.4131 221.603 19.5281 221.691 19.7582L231.089 45.1106C231.107 45.1637 231.116 45.2168 231.116 45.2699V45.4557C231.116 45.5973 231.063 45.7124 230.956 45.8008C230.868 45.907 230.753 45.9601 230.611 45.9601H224.081C223.833 45.9601 223.674 45.8451 223.603 45.615L222.196 41.8188H213.701L212.267 45.615C212.196 45.8451 212.037 45.9601 211.789 45.9601H205.285C205.126 45.9601 204.993 45.907 204.887 45.8008C204.799 45.7124 204.754 45.5973 204.754 45.4557V45.2699C204.754 45.2168 204.763 45.1549 204.781 45.0841L214.179 19.7582C214.267 19.5281 214.426 19.4131 214.656 19.4131H221.214ZM216.117 35.2882H219.78L217.922 30.377L216.117 35.2882Z" fill="white"/>
<path d="M206.464 29.7121C206.606 29.7121 206.721 29.7652 206.81 29.8714C206.916 29.9776 206.969 30.1015 206.969 30.2431V32.8712C206.969 34.7472 206.597 36.5436 205.854 38.2603C205.11 39.977 204.111 41.4548 202.854 42.6936C201.615 43.9325 200.12 44.9147 198.368 45.6404C196.633 46.366 194.81 46.7288 192.899 46.7288C191.005 46.7288 189.191 46.366 187.457 45.6404C185.722 44.9147 184.227 43.9325 182.97 42.6936C181.714 41.4548 180.714 39.977 179.97 38.2603C179.227 36.5436 178.855 34.7472 178.855 32.8712C178.855 30.9952 179.227 29.2077 179.97 27.5087C180.714 25.792 181.714 24.3142 182.97 23.0754C184.227 21.8365 185.722 20.8543 187.457 20.1286C189.191 19.3853 191.014 19.0137 192.925 19.0137C195.173 19.0137 197.27 19.5092 199.217 20.5003C201.182 21.4737 202.81 22.8099 204.102 24.5089C204.19 24.6151 204.226 24.739 204.208 24.8806C204.19 25.0222 204.128 25.1372 204.022 25.2257L198.66 29.2608C198.553 29.3493 198.429 29.3847 198.288 29.367C198.146 29.3493 198.031 29.2785 197.943 29.1546C197.359 28.3405 196.615 27.7034 195.713 27.2433C194.81 26.7654 193.837 26.5265 192.793 26.5265C191.023 26.5265 189.51 27.1459 188.253 28.3848C187.014 29.6236 186.395 31.1191 186.395 32.8712C186.395 34.6233 187.014 36.1188 188.253 37.3577C189.51 38.5965 191.023 39.216 192.793 39.216C193.943 39.216 195.005 38.9328 195.978 38.3665C196.969 37.7824 197.748 37.0126 198.314 36.0569H192.049C191.908 36.0569 191.784 36.0038 191.678 35.8976C191.572 35.7914 191.518 35.6675 191.518 35.5259V30.2431C191.518 30.1015 191.572 29.9776 191.678 29.8714C191.784 29.7652 191.908 29.7121 192.049 29.7121H206.464Z" fill="white"/>
<path d="M171.153 19.4131C171.383 19.4131 171.542 19.5281 171.63 19.7582L181.028 45.1106C181.046 45.1637 181.055 45.2168 181.055 45.2699V45.4557C181.055 45.5973 181.001 45.7124 180.895 45.8008C180.807 45.907 180.692 45.9601 180.55 45.9601H174.02C173.772 45.9601 173.613 45.8451 173.542 45.615L172.135 41.8188H163.64L162.206 45.615C162.135 45.8451 161.976 45.9601 161.728 45.9601H155.224C155.065 45.9601 154.932 45.907 154.826 45.8008C154.738 45.7124 154.693 45.5973 154.693 45.4557V45.2699C154.693 45.2168 154.702 45.1549 154.72 45.0841L164.118 19.7582C164.206 19.5281 164.365 19.4131 164.595 19.4131H171.153ZM166.055 35.2882H169.719L167.861 30.377L166.055 35.2882Z" fill="white"/>
<path d="M146.297 19.5458C146.386 19.4573 146.501 19.4131 146.642 19.4131H153.385C153.527 19.4131 153.642 19.4662 153.731 19.5724C153.837 19.6609 153.89 19.7847 153.89 19.944V45.4292C153.89 45.5885 153.837 45.7124 153.731 45.8008C153.642 45.907 153.527 45.9601 153.385 45.9601H146.961C146.819 45.9601 146.696 45.907 146.589 45.8008C146.501 45.7124 146.457 45.5885 146.457 45.4292V32.5539L144.466 40.8631C144.413 41.1286 144.244 41.2613 143.961 41.2613H137.271C136.988 41.2613 136.82 41.1286 136.767 40.8631L134.802 32.5539V45.4292C134.802 45.5885 134.749 45.7124 134.643 45.8008C134.537 45.907 134.413 45.9601 134.272 45.9601H127.874C127.714 45.9601 127.582 45.907 127.476 45.8008C127.387 45.7124 127.343 45.5885 127.343 45.4292V19.944C127.343 19.7847 127.387 19.6609 127.476 19.5724C127.582 19.4662 127.714 19.4131 127.874 19.4131H134.59C134.732 19.4131 134.847 19.4573 134.935 19.5458C135.661 20.2714 136.493 21.5811 137.431 23.4748C138.386 25.3508 139.156 27.0586 139.74 28.5984L140.616 30.8814C140.705 30.6513 140.829 30.3328 140.988 29.9257C141.147 29.501 141.457 28.7399 141.917 27.6427C142.377 26.5277 142.82 25.5012 143.244 24.5632C143.687 23.6252 144.191 22.6695 144.758 21.6961C145.324 20.7227 145.837 20.006 146.297 19.5458Z" fill="white"/>
<path d="M124.644 46H120.356C120.249 46 120.16 45.96 120.089 45.88C120.03 45.8133 120 45.72 120 45.6V26.4C120 26.28 120.03 26.1867 120.089 26.12C120.16 26.04 120.249 26 120.356 26H124.644C124.739 26 124.822 26.04 124.893 26.12C124.964 26.1867 125 26.28 125 26.4V45.6C125 45.72 124.964 45.8133 124.893 45.88C124.822 45.96 124.739 46 124.644 46Z" fill="white"/>
<path d="M124.644 25H120.356C120.249 25 120.16 24.99 120.089 24.97C120.03 24.9533 120 24.93 120 24.9V20.1C120 20.07 120.03 20.0467 120.089 20.03C120.16 20.01 120.249 20 120.356 20H124.644C124.739 20 124.822 20.01 124.893 20.03C124.964 20.0467 125 20.07 125 20.1V24.9C125 24.93 124.964 24.9533 124.893 24.97C124.822 24.99 124.739 25 124.644 25Z" fill="white"/>
<path d="M117.149 20.3157L116.644 25.4924C116.627 25.6339 116.556 25.7578 116.432 25.864C116.308 25.9525 116.175 25.9791 116.034 25.9437C114.264 25.5543 112.645 25.3508 111.176 25.3331C110.574 25.3154 110.052 25.395 109.61 25.572C109.185 25.7313 108.875 25.9437 108.68 26.2091C108.503 26.4746 108.38 26.7047 108.309 26.8994C108.238 27.094 108.203 27.271 108.203 27.4303C108.203 27.6073 108.238 27.802 108.309 28.0143C108.38 28.2267 108.521 28.4922 108.733 28.8107C108.946 29.1293 109.3 29.439 109.795 29.7399C110.309 30.0408 110.928 30.2797 111.654 30.4567C112.468 30.6513 113.255 30.9787 114.016 31.4389C114.795 31.899 115.512 32.4831 116.167 33.191C116.821 33.8812 117.344 34.7396 117.733 35.7661C118.122 36.7926 118.317 37.9075 118.317 39.111C118.317 41.6949 117.521 43.6063 115.928 44.8452C114.335 46.1017 111.76 46.73 108.203 46.73C106.203 46.73 104.327 46.6238 102.575 46.4114C102.451 46.3937 102.344 46.3318 102.256 46.2256C102.167 46.1194 102.123 45.9955 102.123 45.8539L102.628 40.6773C102.645 40.518 102.716 40.3941 102.84 40.3056C102.964 40.2171 103.105 40.1906 103.265 40.226C104.964 40.5976 106.521 40.7923 107.937 40.81C108.556 40.8277 109.079 40.7569 109.503 40.5976C109.946 40.4206 110.255 40.2083 110.432 39.9605C110.609 39.695 110.733 39.465 110.804 39.2703C110.875 39.0579 110.91 38.8721 110.91 38.7128C110.91 38.5358 110.875 38.3411 110.804 38.1288C110.733 37.9164 110.592 37.6509 110.379 37.3323C110.185 37.0138 109.831 36.7041 109.317 36.4032C108.822 36.1023 108.211 35.8634 107.486 35.6864C106.654 35.4917 105.858 35.1643 105.097 34.7042C104.336 34.244 103.628 33.6688 102.973 32.9786C102.318 32.2884 101.787 31.43 101.38 30.4036C100.991 29.3594 100.796 28.2356 100.796 27.0321C100.796 24.5544 101.69 22.6695 103.477 21.3776C105.282 20.0679 107.76 19.4131 110.91 19.4131C112.609 19.4131 114.538 19.5281 116.698 19.7582C116.821 19.7759 116.928 19.8378 117.016 19.944C117.105 20.0502 117.149 20.1741 117.149 20.3157Z" fill="white"/>
<path d="M298.336 69.3906C297.274 69.3906 296.332 69.1583 295.509 68.6937C294.686 68.2292 294.035 67.592 293.558 66.7824C293.08 65.9594 292.841 65.0303 292.841 63.9949C292.841 62.9463 293.08 62.0172 293.558 61.2075C294.035 60.3978 294.686 59.7673 295.509 59.316C296.332 58.8514 297.274 58.6191 298.336 58.6191C299.385 58.6191 300.32 58.8514 301.143 59.316C301.98 59.7673 302.63 60.3978 303.095 61.2075C303.572 62.0039 303.811 62.933 303.811 63.9949C303.811 65.0435 303.572 65.9727 303.095 66.7824C302.63 67.592 301.98 68.2292 301.143 68.6937C300.32 69.1583 299.385 69.3906 298.336 69.3906ZM298.336 67.7181C299.013 67.7181 299.617 67.5655 300.148 67.2602C300.692 66.9549 301.117 66.5235 301.422 65.966C301.727 65.3953 301.88 64.7382 301.88 63.9949C301.88 63.2383 301.727 62.5879 301.422 62.0437C301.117 61.4862 300.692 61.0548 300.148 60.7495C299.617 60.4442 299.013 60.2916 298.336 60.2916C297.659 60.2916 297.055 60.4442 296.524 60.7495C295.993 61.0548 295.569 61.4862 295.25 62.0437C294.931 62.5879 294.772 63.2383 294.772 63.9949C294.772 64.7382 294.931 65.3953 295.25 65.966C295.569 66.5235 295.993 66.9549 296.524 67.2602C297.055 67.5655 297.659 67.7181 298.336 67.7181Z" fill="white"/>
<path d="M286.804 73.2534C286.366 73.2534 285.948 73.2003 285.55 73.0941C285.139 72.9879 284.793 72.8286 284.515 72.6162L285.132 71.1429C285.53 71.4747 286.048 71.6406 286.685 71.6406C287.189 71.6406 287.574 71.4813 287.84 71.1628C288.118 70.8575 288.258 70.3996 288.258 69.789V58.7189H290.169V69.7492C290.169 70.8243 289.877 71.6738 289.293 72.2977C288.722 72.9348 287.893 73.2534 286.804 73.2534ZM289.213 56.688C288.842 56.688 288.53 56.5685 288.278 56.3296C288.039 56.0907 287.919 55.7987 287.919 55.4536C287.919 55.0952 288.039 54.7965 288.278 54.5576C288.53 54.3187 288.842 54.1992 289.213 54.1992C289.585 54.1992 289.89 54.3187 290.129 54.5576C290.382 54.7833 290.508 55.0686 290.508 55.4137C290.508 55.7721 290.388 56.0774 290.149 56.3296C289.91 56.5685 289.598 56.688 289.213 56.688Z" fill="white"/>
<path d="M279.992 69.2711V58.7187H281.823V61.5858L281.644 60.869C281.936 60.139 282.427 59.5815 283.118 59.1965C283.808 58.8116 284.657 58.6191 285.666 58.6191V60.4708C285.586 60.4575 285.507 60.4509 285.427 60.4509C285.361 60.4509 285.294 60.4509 285.228 60.4509C284.206 60.4509 283.396 60.7562 282.799 61.3668C282.202 61.9773 281.903 62.86 281.903 64.0148V69.2711H279.992Z" fill="white"/>
<path d="M274.643 69.2711V67.0412L274.543 66.6231V62.8202C274.543 62.0105 274.304 61.3867 273.826 60.9486C273.362 60.4973 272.658 60.2717 271.716 60.2717C271.092 60.2717 270.481 60.3779 269.884 60.5903C269.287 60.7894 268.782 61.0615 268.371 61.4066L267.575 59.973C268.119 59.535 268.769 59.2032 269.526 58.9775C270.296 58.7386 271.099 58.6191 271.935 58.6191C273.382 58.6191 274.497 58.9709 275.28 59.6744C276.063 60.3779 276.455 61.453 276.455 62.8999V69.2711H274.643ZM271.178 69.3906C270.395 69.3906 269.705 69.2579 269.108 68.9924C268.524 68.7269 268.072 68.3619 267.754 67.8973C267.435 67.4195 267.276 66.8819 267.276 66.2846C267.276 65.7138 267.409 65.1962 267.674 64.7316C267.953 64.267 268.397 63.8954 269.008 63.6166C269.632 63.3379 270.468 63.1985 271.517 63.1985H274.862V64.5723H271.596C270.641 64.5723 269.997 64.7316 269.665 65.0502C269.333 65.3687 269.167 65.7537 269.167 66.205C269.167 66.7226 269.373 67.1407 269.785 67.4593C270.196 67.7646 270.767 67.9172 271.497 67.9172C272.214 67.9172 272.837 67.758 273.368 67.4394C273.913 67.1208 274.304 66.6563 274.543 66.0457L274.921 67.3598C274.669 67.9836 274.225 68.4814 273.587 68.853C272.95 69.2114 272.147 69.3906 271.178 69.3906Z" fill="white"/>
<path d="M260.071 69.3906C259.009 69.3906 258.067 69.1583 257.244 68.6937C256.421 68.2292 255.77 67.592 255.292 66.7824C254.815 65.9594 254.576 65.0303 254.576 63.9949C254.576 62.9463 254.815 62.0172 255.292 61.2075C255.77 60.3978 256.421 59.7673 257.244 59.316C258.067 58.8514 259.009 58.6191 260.071 58.6191C261.12 58.6191 262.055 58.8514 262.878 59.316C263.715 59.7673 264.365 60.3978 264.829 61.2075C265.307 62.0039 265.546 62.933 265.546 63.9949C265.546 65.0435 265.307 65.9727 264.829 66.7824C264.365 67.592 263.715 68.2292 262.878 68.6937C262.055 69.1583 261.12 69.3906 260.071 69.3906ZM260.071 67.7181C260.748 67.7181 261.352 67.5655 261.883 67.2602C262.427 66.9549 262.852 66.5235 263.157 65.966C263.462 65.3953 263.615 64.7382 263.615 63.9949C263.615 63.2383 263.462 62.5879 263.157 62.0437C262.852 61.4862 262.427 61.0548 261.883 60.7495C261.352 60.4442 260.748 60.2916 260.071 60.2916C259.394 60.2916 258.79 60.4442 258.259 60.7495C257.728 61.0548 257.303 61.4862 256.985 62.0437C256.666 62.5879 256.507 63.2383 256.507 63.9949C256.507 64.7382 256.666 65.3953 256.985 65.966C257.303 66.5235 257.728 66.9549 258.259 67.2602C258.79 67.5655 259.394 67.7181 260.071 67.7181Z" fill="white"/>
<path d="M246.34 69.3909C245.318 69.3909 244.402 69.1653 243.592 68.714C242.796 68.2627 242.165 67.6322 241.701 66.8225C241.236 66.0128 241.004 65.0704 241.004 63.9953C241.004 62.9201 241.236 61.9843 241.701 61.1879C242.165 60.3782 242.796 59.7477 243.592 59.2964C244.402 58.8451 245.318 58.6195 246.34 58.6195C247.229 58.6195 248.032 58.8186 248.749 59.2168C249.466 59.615 250.037 60.2123 250.461 61.0087C250.899 61.8051 251.118 62.8006 251.118 63.9953C251.118 65.1899 250.906 66.1854 250.481 66.9818C250.07 67.7782 249.506 68.3822 248.789 68.7936C248.072 69.1918 247.256 69.3909 246.34 69.3909ZM246.499 67.7185C247.163 67.7185 247.76 67.5658 248.291 67.2605C248.835 66.9552 249.26 66.5239 249.565 65.9664C249.884 65.3956 250.043 64.7386 250.043 63.9953C250.043 63.2387 249.884 62.5883 249.565 62.044C249.26 61.4866 248.835 61.0552 248.291 60.7499C247.76 60.4446 247.163 60.2919 246.499 60.2919C245.822 60.2919 245.218 60.4446 244.687 60.7499C244.156 61.0552 243.732 61.4866 243.413 62.044C243.094 62.5883 242.935 63.2387 242.935 63.9953C242.935 64.7386 243.094 65.3956 243.413 65.9664C243.732 66.5239 244.156 66.9552 244.687 67.2605C245.218 67.5658 245.822 67.7185 246.499 67.7185ZM250.103 69.2715V66.4243L250.222 63.9753L250.023 61.5264V54.498H251.935V69.2715H250.103Z" fill="white"/>
<path d="M236.419 69.2713V58.7189H238.33V69.2713H236.419ZM237.374 56.688C237.003 56.688 236.691 56.5685 236.438 56.3296C236.2 56.0907 236.08 55.7987 236.08 55.4536C236.08 55.0952 236.2 54.7965 236.438 54.5576C236.691 54.3187 237.003 54.1992 237.374 54.1992C237.746 54.1992 238.051 54.3187 238.29 54.5576C238.542 54.7833 238.668 55.0686 238.668 55.4137C238.668 55.7721 238.549 56.0774 238.31 56.3296C238.071 56.5685 237.759 56.688 237.374 56.688Z" fill="white"/>
<path d="M228.393 69.4315C227.331 69.4315 226.315 69.2723 225.346 68.9537C224.377 68.6219 223.614 68.1971 223.057 67.6794L223.793 66.1264C224.324 66.591 225.001 66.9759 225.824 67.2812C226.647 67.5865 227.503 67.7392 228.393 67.7392C229.202 67.7392 229.859 67.6463 230.364 67.4604C230.868 67.2746 231.24 67.0224 231.479 66.7038C231.718 66.372 231.837 66.0003 231.837 65.5889C231.837 65.111 231.678 64.7261 231.359 64.4341C231.054 64.142 230.649 63.9098 230.145 63.7372C229.654 63.5514 229.109 63.3921 228.512 63.2594C227.915 63.1266 227.311 62.974 226.7 62.8014C226.103 62.6156 225.552 62.3833 225.048 62.1046C224.557 61.8258 224.158 61.4542 223.853 60.9896C223.548 60.5117 223.395 59.9012 223.395 59.1578C223.395 58.4411 223.581 57.784 223.953 57.1867C224.338 56.5761 224.922 56.0917 225.705 55.7333C226.501 55.3616 227.51 55.1758 228.731 55.1758C229.541 55.1758 230.344 55.282 231.14 55.4943C231.937 55.7067 232.627 56.012 233.211 56.4102L232.554 58.003C231.957 57.6048 231.326 57.3195 230.662 57.1469C229.999 56.9611 229.355 56.8682 228.731 56.8682C227.948 56.8682 227.304 56.9677 226.8 57.1668C226.295 57.3659 225.924 57.6314 225.685 57.9632C225.459 58.2951 225.346 58.6667 225.346 59.0782C225.346 59.5693 225.499 59.9609 225.804 60.2529C226.123 60.5449 226.528 60.7772 227.019 60.9498C227.523 61.1223 228.074 61.2816 228.671 61.4276C229.269 61.5603 229.866 61.713 230.463 61.8855C231.074 62.0581 231.625 62.2838 232.116 62.5625C232.62 62.8412 233.025 63.2129 233.33 63.6775C233.636 64.142 233.788 64.7394 233.788 65.4694C233.788 66.1729 233.596 66.8299 233.211 67.4405C232.826 68.0378 232.229 68.5223 231.419 68.894C230.623 69.2524 229.614 69.4315 228.393 69.4315Z" fill="white"/>
<path d="M210.587 69.3906C209.525 69.3906 208.583 69.1583 207.76 68.6937C206.937 68.2292 206.286 67.592 205.809 66.7824C205.331 65.9594 205.092 65.0303 205.092 63.9949C205.092 62.9463 205.331 62.0172 205.809 61.2075C206.286 60.3978 206.937 59.7673 207.76 59.316C208.583 58.8514 209.525 58.6191 210.587 58.6191C211.636 58.6191 212.571 58.8514 213.394 59.316C214.231 59.7673 214.881 60.3978 215.346 61.2075C215.823 62.0039 216.062 62.933 216.062 63.9949C216.062 65.0435 215.823 65.9727 215.346 66.7824C214.881 67.592 214.231 68.2292 213.394 68.6937C212.571 69.1583 211.636 69.3906 210.587 69.3906ZM210.587 67.7181C211.264 67.7181 211.868 67.5655 212.399 67.2602C212.943 66.9549 213.368 66.5235 213.673 65.966C213.978 65.3953 214.131 64.7382 214.131 63.9949C214.131 63.2383 213.978 62.5879 213.673 62.0437C213.368 61.4862 212.943 61.0548 212.399 60.7495C211.868 60.4442 211.264 60.2916 210.587 60.2916C209.91 60.2916 209.306 60.4442 208.775 60.7495C208.244 61.0548 207.82 61.4862 207.501 62.0437C207.182 62.5879 207.023 63.2383 207.023 63.9949C207.023 64.7382 207.182 65.3953 207.501 65.966C207.82 66.5235 208.244 66.9549 208.775 67.2602C209.306 67.5655 209.91 67.7181 210.587 67.7181Z" fill="white"/>
<path d="M199.482 69.2708V57.7826C199.482 56.7473 199.781 55.9243 200.378 55.3137C200.989 54.6899 201.852 54.3779 202.967 54.3779C203.378 54.3779 203.77 54.431 204.141 54.5372C204.526 54.6301 204.851 54.7828 205.117 54.9951L204.54 56.4486C204.34 56.2893 204.115 56.1699 203.863 56.0902C203.61 55.9973 203.345 55.9508 203.066 55.9508C202.509 55.9508 202.084 56.1101 201.792 56.4287C201.5 56.734 201.354 57.1919 201.354 57.8025V59.2161L201.394 60.0922V69.2708H199.482ZM197.69 60.2913V58.7184H204.42V60.2913H197.69Z" fill="white"/>
<path d="M191.286 58.6191C192.149 58.6191 192.905 58.7851 193.556 59.1169C194.219 59.4487 194.737 59.9531 195.109 60.6301C195.48 61.307 195.666 62.1632 195.666 63.1985V69.2711H193.755V63.4175C193.755 62.3955 193.503 61.6256 192.998 61.1079C192.507 60.5903 191.81 60.3314 190.908 60.3314C190.231 60.3314 189.64 60.4642 189.136 60.7296C188.631 60.9951 188.24 61.3867 187.961 61.9043C187.695 62.422 187.563 63.0658 187.563 63.8356V69.2711H185.651V58.7187H187.483V61.5659L187.184 60.8093C187.53 60.119 188.061 59.5815 188.777 59.1965C189.494 58.8116 190.33 58.6191 191.286 58.6191Z" fill="white"/>
<path d="M180.091 69.2713V58.7189H182.002V69.2713H180.091ZM181.047 56.688C180.675 56.688 180.363 56.5685 180.111 56.3296C179.872 56.0907 179.752 55.7987 179.752 55.4536C179.752 55.0952 179.872 54.7965 180.111 54.5576C180.363 54.3187 180.675 54.1992 181.047 54.1992C181.418 54.1992 181.724 54.3187 181.962 54.5576C182.215 54.7833 182.341 55.0686 182.341 55.4137C182.341 55.7721 182.221 56.0774 181.982 56.3296C181.743 56.5685 181.432 56.688 181.047 56.688Z" fill="white"/>
<path d="M172.253 58.6191C173.102 58.6191 173.852 58.7851 174.503 59.1169C175.153 59.4487 175.657 59.9531 176.016 60.6301C176.387 61.307 176.573 62.1632 176.573 63.1985V69.2711H174.662V63.4175C174.662 62.3955 174.423 61.6256 173.945 61.1079C173.467 60.5903 172.797 60.3314 171.934 60.3314C171.297 60.3314 170.74 60.4642 170.262 60.7296C169.784 60.9951 169.412 61.3867 169.147 61.9043C168.895 62.422 168.768 63.0658 168.768 63.8356V69.2711H166.857V63.4175C166.857 62.3955 166.618 61.6256 166.14 61.1079C165.676 60.5903 165.005 60.3314 164.129 60.3314C163.506 60.3314 162.955 60.4642 162.477 60.7296C161.999 60.9951 161.627 61.3867 161.362 61.9043C161.096 62.422 160.964 63.0658 160.964 63.8356V69.2711H159.052V58.7187H160.884V61.526L160.585 60.8093C160.917 60.119 161.428 59.5815 162.118 59.1965C162.809 58.8116 163.612 58.6191 164.528 58.6191C165.536 58.6191 166.406 58.8713 167.136 59.3757C167.866 59.8669 168.344 60.6168 168.569 61.6256L167.793 61.307C168.111 60.4973 168.669 59.8469 169.465 59.3558C170.262 58.8647 171.191 58.6191 172.253 58.6191Z" fill="white"/>
<path d="M150.934 69.3906C149.872 69.3906 148.93 69.1583 148.107 68.6937C147.284 68.2292 146.634 67.592 146.156 66.7824C145.678 65.9594 145.439 65.0303 145.439 63.9949C145.439 62.9463 145.678 62.0172 146.156 61.2075C146.634 60.3978 147.284 59.7673 148.107 59.316C148.93 58.8514 149.872 58.6191 150.934 58.6191C151.983 58.6191 152.919 58.8514 153.742 59.316C154.578 59.7673 155.228 60.3978 155.693 61.2075C156.171 62.0039 156.41 62.933 156.41 63.9949C156.41 65.0435 156.171 65.9727 155.693 66.7824C155.228 67.592 154.578 68.2292 153.742 68.6937C152.919 69.1583 151.983 69.3906 150.934 69.3906ZM150.934 67.7181C151.611 67.7181 152.215 67.5655 152.746 67.2602C153.29 66.9549 153.715 66.5235 154.02 65.966C154.326 65.3953 154.478 64.7382 154.478 63.9949C154.478 63.2383 154.326 62.5879 154.02 62.0437C153.715 61.4862 153.29 61.0548 152.746 60.7495C152.215 60.4442 151.611 60.2916 150.934 60.2916C150.257 60.2916 149.653 60.4442 149.122 60.7495C148.591 61.0548 148.167 61.4862 147.848 62.0437C147.53 62.5879 147.37 63.2383 147.37 63.9949C147.37 64.7382 147.53 65.3953 147.848 65.966C148.167 66.5235 148.591 66.9549 149.122 67.2602C149.653 67.5655 150.257 67.7181 150.934 67.7181Z" fill="white"/>
<path d="M136.145 66.723L136.185 64.274L142.258 58.719H144.567L139.908 63.2984L138.873 64.1744L136.145 66.723ZM134.592 69.2715V54.498H136.504V69.2715H134.592ZM142.656 69.2715L138.515 64.1346L139.749 62.6015L145.005 69.2715H142.656Z" fill="white"/>
<path d="M127.645 69.3906C126.768 69.3906 125.932 69.2711 125.136 69.0322C124.353 68.7933 123.735 68.5013 123.284 68.1562L124.081 66.643C124.532 66.9483 125.089 67.2071 125.753 67.4195C126.417 67.6319 127.094 67.738 127.784 67.738C128.673 67.738 129.31 67.6119 129.695 67.3598C130.093 67.1076 130.293 66.7558 130.293 66.3045C130.293 65.9727 130.173 65.7138 129.934 65.528C129.695 65.3422 129.377 65.2028 128.979 65.1099C128.594 65.017 128.162 64.9373 127.684 64.871C127.207 64.7913 126.729 64.6984 126.251 64.5922C125.773 64.4728 125.335 64.3135 124.937 64.1144C124.539 63.902 124.22 63.6166 123.981 63.2582C123.742 62.8866 123.623 62.3955 123.623 61.7849C123.623 61.1477 123.802 60.5903 124.16 60.1124C124.519 59.6346 125.023 59.2695 125.673 59.0173C126.337 58.7519 127.12 58.6191 128.023 58.6191C128.713 58.6191 129.41 58.7054 130.113 58.878C130.83 59.0373 131.414 59.2695 131.866 59.5748L131.049 61.088C130.571 60.7695 130.074 60.5504 129.556 60.431C129.038 60.3115 128.521 60.2518 128.003 60.2518C127.167 60.2518 126.543 60.3912 126.131 60.6699C125.72 60.9354 125.514 61.2805 125.514 61.7052C125.514 62.0636 125.634 62.3424 125.873 62.5415C126.125 62.7273 126.443 62.8733 126.828 62.9795C127.226 63.0857 127.664 63.1786 128.142 63.2582C128.62 63.3246 129.098 63.4175 129.576 63.537C130.054 63.6432 130.485 63.7958 130.87 63.9949C131.268 64.194 131.587 64.4728 131.826 64.8311C132.078 65.1895 132.204 65.6674 132.204 66.2647C132.204 66.9018 132.018 67.4527 131.646 67.9172C131.275 68.3818 130.751 68.7468 130.074 69.0123C129.397 69.2645 128.587 69.3906 127.645 69.3906Z" fill="white"/>
<path d="M119.057 69.2713V58.7189H120.969V69.2713H119.057ZM120.013 56.688C119.641 56.688 119.329 56.5685 119.077 56.3296C118.838 56.0907 118.719 55.7987 118.719 55.4536C118.719 55.0952 118.838 54.7965 119.077 54.5576C119.329 54.3187 119.641 54.1992 120.013 54.1992C120.385 54.1992 120.69 54.3187 120.929 54.5576C121.181 54.7833 121.307 55.0686 121.307 55.4137C121.307 55.7721 121.188 56.0774 120.949 56.3296C120.71 56.5685 120.398 56.688 120.013 56.688Z" fill="white"/>
<path d="M102.886 69.2712V55.334H108.76C110.246 55.334 111.554 55.626 112.682 56.21C113.824 56.7941 114.706 57.6104 115.33 58.659C115.967 59.7076 116.286 60.9221 116.286 62.3026C116.286 63.683 115.967 64.8976 115.33 65.9462C114.706 66.9948 113.824 67.8111 112.682 68.3951C111.554 68.9792 110.246 69.2712 108.76 69.2712H102.886ZM104.877 67.539H108.64C109.795 67.539 110.791 67.32 111.627 66.8819C112.476 66.4439 113.133 65.8333 113.598 65.0502C114.063 64.2538 114.295 63.3379 114.295 62.3026C114.295 61.254 114.063 60.3381 113.598 59.555C113.133 58.7718 112.476 58.1612 111.627 57.7232C110.791 57.2852 109.795 57.0662 108.64 57.0662H104.877V67.539Z" fill="white"/>
</svg>
